<svg viewBox="0 0 14 14" xmlns="http://www.w3.org/2000/svg" xmlns:xlink="http://www.w3.org/1999/xlink" width="14.000000" height="14.000000" fill="none" customFrame="#000000">
	<rect id="ic_scan" width="14.000000" height="14.000000" x="0.000000" y="0.000000" />
	<path id="形状" d="M1.40704 5.01374L-0 5.01374L0 3.00872C0.00258 1.34812 1.34812 0.00258 3.00872 -0L5.01374 0L5.01374 1.40704L3.00872 1.40704C2.12412 1.40704 1.40704 2.12412 1.40704 3.00872L1.40704 5.01374ZM12.593 5.01374L14 5.01374L14 3.00872C13.9974 1.34812 12.6519 0.00258 10.9913 -0L9.0144 0L9.0144 1.40704L10.9913 1.40704C11.8753 1.40832 12.5917 2.12466 12.593 3.00872L12.593 5.01374ZM9.0144 14L10.9913 14C12.6519 13.9974 13.9974 12.6519 14 10.9913L14 8.98626L12.593 8.98626L12.593 10.9913C12.5904 11.8748 11.8748 12.5904 10.9913 12.593L9.0144 12.593L9.0144 14ZM3.00872 14L5.01374 14L5.01374 12.593L3.00872 12.593C2.12466 12.5917 1.40832 11.8753 1.40704 10.9913L1.40704 9.00034L0 9.00034L0 10.9913C0.00258 12.6519 1.34812 13.9974 3.00872 14Z" fill="rgb(13,21,38)" fill-rule="evenodd" />
	<path id="路径" d="M13.2965 8L0.703518 8C0.314976 8 4.75827e-17 7.55228 0 7C-4.75827e-17 6.44772 0.314976 6 0.703518 6L13.2965 6C13.685 6 14 6.44772 14 7C14 7.55228 13.685 8 13.2965 8Z" fill="rgb(79,110,242)" fill-rule="evenodd" />
</svg>
